Coordinates
nRows=4
nColumns=38

# SIMM Motion File Header:
name Coordinates
datacolumns 38
datarows 4
otherdata 1
range 0.92000000000000004000 0.92300000000000004000

Units are S.I. units (second, meters, Newtons, ...)
Angles are in degrees.

endheader
time	pelvis_tilt	pelvis_list	pelvis_rotation	pelvis_tx	pelvis_ty	pelvis_tz	hip_flexion_r	hip_adduction_r	hip_rotation_r	knee_angle_r	ankle_angle_r	subtalar_angle_r	mtp_angle_r	hip_flexion_l	hip_adduction_l	hip_rotation_l	knee_angle_l	ankle_angle_l	subtalar_angle_l	mtp_angle_l	lumbar_extension	lumbar_bending	lumbar_rotation	arm_flex_r	arm_add_r	arm_rot_r	elbow_flex_r	pro_sup_r	wrist_flex_r	wrist_dev_r	arm_flex_l	arm_add_l	arm_rot_l	elbow_flex_l	pro_sup_l	wrist_flex_l	wrist_dev_l
      0.92000000000000004000	     -3.36408169581718090000	      0.07053154406572446900	      5.52736677521421970000	      0.68084197589795969000	      0.94955443704236464000	     -0.30557370534579253000	     35.68143279550776000000	     -2.00373067464610480000	     -7.31180550608944910000	    -95.90426609539956400000	     -5.24454410255325600000	     -0.00000000000010647118	      0.00000000000001158333	      8.46756643338523670000	      4.09552396665055700000	     -0.98713556185914464000	    -36.59873954879531500000	     18.78956953132861700000	     -0.00000000000003555375	      0.00000000000006952890	     -6.52407159560973950000	     -2.00276334098941790000	    -13.22061728917985400000	    -20.16685350536889800000	    -19.79613829742168100000	      7.38208760479966130000	     66.91436366573921600000	     86.84590529171507000000	     -0.00000000000006733590	     -0.00000000000002804551	     -6.16907148997215590000	    -31.62794318655628300000	     24.54123544392940900000	    103.28355835265872000000	     79.80385750358269100000	      0.00000000000000268691	      0.00000000000010751462
      0.92100000000000004000	     -3.36388871027012340000	     -0.01546360952683871100	      5.51835450726415380000	      0.68075729598604617000	      0.94992989729241384000	     -0.30555918261758408000	     35.83839576008566000000	     -1.90021833421246740000	     -7.31738731006999470000	    -95.59719562343028100000	     -5.12704908983047150000	     -0.00000000000010658247	      0.00000000000001170320	      8.20086668766354880000	      3.96725290875193440000	     -0.99723633803563516000	    -36.41078352305066800000	     18.59593720502154900000	     -0.00000000000003558981	      0.00000000000006983958	     -6.53242754201091990000	     -1.88916410599591170000	    -13.31978255540831700000	    -20.24465000508740800000	    -19.87232051586504900000	      7.44793704390659880000	     66.98497615399060100000	     86.67546372465795900000	     -0.00000000000006748547	     -0.00000000000002801287	     -6.04682816783418710000	    -31.54423451236886000000	     24.46365362931445400000	    103.42548831137952000000	     79.84293566642831800000	      0.00000000000000268228	      0.00000000000010778603
      0.92200000000000004000	     -3.36353331891715790000	     -0.10178861799467875000	      5.50899013891065610000	      0.68068148855807320000	      0.95031687472214110000	     -0.30554557579846292000	     35.99038326532879500000	     -1.79683817262239540000	     -7.32410218252972280000	    -95.28209451723893200000	     -5.00922997013807430000	     -0.00000000000010669517	      0.00000000000001182271	      7.93238846251802790000	      3.83886610824281640000	     -1.00719960823863250000	    -36.21976849367185700000	     18.39521297155655300000	     -0.00000000000003561566	      0.00000000000007007360	     -6.53976800423146280000	     -1.77479921103942550000	    -13.41833168623107600000	    -20.32319105095459500000	    -19.94956134519186400000	      7.51409436503066620000	     67.05841636080413100000	     86.50160317143537700000	     -0.00000000000006763040	     -0.00000000000002795764	     -5.92662829507980420000	    -31.46076334501195500000	     24.38738058601329300000	    103.56807482750834000000	     79.87767011833723500000	      0.00000000000000267653	      0.00000000000010805861
      0.92300000000000004000	     -3.36308252959453750000	     -0.18837365462458402000	      5.49925101478188520000	      0.68061452794315980000	      0.95071501581085016000	     -0.30553282544434385000	     36.13748535257317200000	     -1.69363075383232480000	     -7.33186324896029440000	    -94.95908688596296100000	     -4.89120343928680250000	     -0.00000000000010682024	      0.00000000000001194246	      7.66229412228617160000	      3.71046567158091460000	     -1.01706058156217980000	    -36.02586592481301200000	     18.18739159009436400000	     -0.00000000000003569826	      0.00000000000007029973	     -6.54602317953319710000	     -1.65976727758746410000	    -13.51624182786724800000	    -20.40247573463802100000	    -20.02782068240074400000	      7.58048693811032860000	     67.13455039042933900000	     86.32472374700242300000	     -0.00000000000006778159	     -0.00000000000002789524	     -5.80849216731028670000	    -31.37757294963710600000	     24.31247134310394000000	    103.71130282040194000000	     79.90809043579039900000	      0.00000000000000266923	      0.00000000000010833169
